# Alias OBJ Model File
# Exported from SketchUp, (c) 2000-2012 Trimble Navigation Limited
# File units = millimeters

mtllib tetr_1.mtl

g Mesh1 Model

usemtl FrontColor
v 10 50 10
vt 1.9685 0.393701
vn 1 0 0
v 10 10 50
vt 0.393701 1.9685
v 10 10 10
vt 0.393701 0.393701
f 1/1/1 2/2/1 3/3/1

vt -1.11881 -0.638515
vn -0.579775 -0.576134 -0.576134
v 49.7488 10 10
vt 1.10132 -0.638515
vt -0.00175392 1.28819
f 1/4/2 4/5/2 2/6/2

vt 1.95861 0.393701
vn 0 0 1
f 4/7/3 1/2/3 3/3/3

vt -0.393701 1.9685
vn 0 1 0
vt -1.95861 0.393701
vt -0.393701 0.393701
f 2/8/4 4/9/4 3/10/4

g Mesh2 Model

l 3 2

l 3 1

l 4 3

l 1 4

l 2 1

l 4 2

