# Blender v3.0.1 OBJ File: ''
# www.blender.org
mtllib bunny_initial_decimated.mtl
# o Stanford_Bunny
v 55.333210 7.326521 29.484470
v 56.666573 6.448046 0.426148
v -8.294665 52.925663 25.041508
v -3.280395 8.525626 9.336466
v -0.543649 10.916781 26.604031
v -10.644095 74.996002 33.511253
v -23.213804 60.832878 5.289444
v -20.482189 76.508614 3.761893
v -8.594109 83.974136 -11.512245
v 0.711250 32.720085 -16.901854
v 7.099628 20.942528 -3.919450
v -0.254840 86.009048 -36.016335
v 0.697698 95.284622 -32.744892
v -8.817691 47.780678 -13.802894
v -17.646358 53.175838 17.021982
v 8.218695 66.419838 -12.269938
v 17.408760 71.689957 -0.740565
v -12.047245 30.030981 -3.472928
v 11.127119 65.369484 19.236998
v -20.717800 42.098812 8.092231
v -4.713224 91.065971 -3.006765
v 5.936748 96.260323 -6.231705
v -12.645521 56.640060 -7.928726
v 6.281368 47.155422 -20.458548
v 2.328092 87.011070 19.063023
v 48.841389 30.329082 -22.530920
v -0.722791 46.316273 30.488323
v 4.044987 109.859161 -38.235931
v 13.616049 83.847809 2.344863
v 68.793777 60.391434 -6.113038
v -21.485510 67.222366 28.243347
v 36.015865 106.202141 -31.604500
v 59.365288 73.067879 5.165223
v 63.870800 45.086388 34.232178
v 24.624899 11.096034 35.817528
v 37.579735 59.829342 -16.242020
v 79.496086 33.259941 12.188951
v 1.781126 10.999565 -3.440991
v 74.063057 56.612144 18.711611
v 71.998161 43.095001 -10.518236
v 34.513348 42.432774 -28.422447
v -6.854043 31.753269 24.778490
v 6.842181 82.717018 -8.924705
v 17.734016 8.376891 -19.600454
v 32.502880 14.098030 -17.507288
v -22.163206 87.404335 8.984550
v 13.586257 92.907280 -46.609951
v 14.689772 42.740051 30.029396
v 41.891842 25.889462 41.509872
v 86.828644 28.534994 13.101117
v 56.110603 10.050703 -12.076652
v 40.464840 45.818336 41.107368
v 63.615032 22.138470 -13.831352
v 29.118870 110.032196 -10.007359
v 55.971992 68.392265 26.899269
v 34.998543 92.233192 -17.187855
v 31.004023 47.993050 -18.750988
v 7.919044 17.246651 20.000465
vn -0.1621 -0.6559 0.7372
vn -0.7928 -0.1598 0.5882
vn 0.3698 -0.7703 0.5195
vn 0.4454 -0.7004 -0.5578
vn 0.3548 -0.9250 -0.1362
vn -0.3106 -0.3800 -0.8713
vn -0.8968 -0.1196 -0.4259
vn -0.9290 -0.3697 0.0173
vn -0.9225 -0.2862 -0.2589
vn -0.9206 0.0593 -0.3861
vn -0.7088 0.0434 -0.7041
vn -0.1408 0.0941 -0.9856
vn -0.2301 -0.5028 -0.8332
vn -0.6264 0.0616 -0.7771
vn 0.0812 0.3642 -0.9278
vn -0.9819 -0.1878 0.0230
vn -0.8726 -0.3231 0.3662
vn 0.3449 0.4936 0.7983
vn 0.9030 0.2396 0.3566
vn 0.3707 0.7162 0.5913
vn -0.2125 0.1065 0.9713
vn -0.2631 0.0983 0.9598
vn -0.3292 0.3184 -0.8889
vn -0.1265 0.2496 -0.9600
vn 0.7460 0.1183 -0.6554
vn 0.2434 0.7698 0.5901
vn 0.8556 0.4208 0.3015
vn 0.3479 0.9260 -0.1465
vn 0.1497 0.4622 -0.8741
vn 0.6375 0.5128 -0.5751
vn 0.9130 0.3545 0.2020
vn 0.6036 -0.2362 -0.7615
vn -0.7785 0.2234 0.5866
vn 0.5732 0.0938 0.8140
vn -0.6948 0.1303 -0.7073
vn -0.7827 0.6222 0.0170
vn -0.6738 -0.2866 -0.6810
vn -0.8942 0.1837 -0.4082
vn -0.4496 -0.7213 -0.5268
vn -0.5480 -0.4834 0.6827
vn 0.5083 -0.0930 -0.8562
vn 0.5243 0.8134 -0.2519
vn -0.3392 -0.1370 0.9307
vn -0.7677 -0.0977 0.6333
vn -0.0475 0.2839 0.9577
vn 0.7228 -0.6728 -0.1579
vn -0.0693 -0.0944 -0.9931
vn -0.7241 -0.6068 -0.3277
vn -0.4567 0.7830 -0.4224
vn -0.0773 0.9260 -0.3695
vn -0.3749 0.8707 -0.3184
vn -0.0775 0.2612 0.9622
vn 0.0616 -0.1612 0.9850
vn 0.5429 -0.1371 -0.8286
vn 0.2987 -0.1927 -0.9347
vn 0.2787 0.8570 0.4334
vn 0.4091 0.2938 -0.8639
vn 0.9700 0.1413 0.1979
vn -0.1734 0.6072 0.7754
vn -0.7022 -0.0913 0.7061
vn -0.3573 0.0583 0.9322
vn 0.6449 -0.6503 -0.4014
usemtl None
s 1
f 35//1 5//2 1//3
f 51//4 2//5 44//6
f 1//3 5//2 2//5
f 38//7 44//6 4//8
f 4//8 44//6 5//2
f 44//6 2//5 5//2
f 7//9 8//10 23//11
f 24//12 10//13 14//14
f 24//12 14//14 16//15
f 16//15 14//14 23//11
f 23//11 20//16 15//17
f 15//17 7//9 23//11
f 19//18 29//19 25//20
f 19//18 27//21 48//22
f 41//23 57//24 40//25
f 55//26 39//27 33//28
f 57//24 36//29 30//30
f 40//25 37//31 53//32
f 40//25 57//24 30//30
f 30//30 33//28 39//27
f 58//33 4//8 5//2
f 37//31 39//27 34//34
f 55//26 34//34 39//27
f 9//35 23//11 8//10
f 46//36 9//35 8//10
f 38//7 58//33 11//37
f 13//38 12//39 9//35
f 15//17 42//40 27//21
f 20//16 42//40 15//17
f 43//41 17//42 16//15
f 29//19 17//42 43//41
f 9//35 16//15 23//11
f 43//41 16//15 9//35
f 40//25 30//30 37//31
f 16//15 17//42 36//29
f 39//27 37//31 30//30
f 3//43 15//17 27//21
f 8//10 7//9 31//44
f 31//44 3//43 6//45
f 31//44 15//17 3//43
f 56//46 29//19 43//41
f 44//6 11//37 45//47
f 18//48 10//13 11//37
f 27//21 42//40 48//22
f 14//14 18//48 20//16
f 14//14 10//13 18//48
f 46//36 31//44 6//45
f 23//11 14//14 20//16
f 25//20 46//36 6//45
f 46//36 8//10 31//44
f 3//43 27//21 19//18
f 21//49 13//38 9//35
f 9//35 46//36 21//49
f 57//24 11//37 10//13
f 19//18 6//45 3//43
f 10//13 24//12 57//24
f 6//45 19//18 25//20
f 16//15 57//24 24//12
f 17//42 29//19 19//18
f 57//24 16//15 36//29
f 43//41 28//50 21//49
f 45//47 51//4 44//6
f 13//38 21//49 28//50
f 22//51 56//46 43//41
f 51//4 53//32 2//5
f 22//51 25//20 29//19
f 52//52 49//53 34//34
f 47//54 12//39 13//38
f 51//4 45//47 26//55
f 13//38 28//50 47//54
f 26//55 40//25 53//32
f 26//55 45//47 41//23
f 40//25 26//55 41//23
f 51//4 26//55 53//32
f 55//26 52//52 34//34
f 21//49 22//51 43//41
f 46//36 25//20 22//51
f 46//36 22//51 21//49
f 38//7 11//37 44//6
f 12//39 47//54 9//35
f 47//54 43//41 9//35
f 29//19 54//56 22//51
f 54//56 29//19 56//46
f 57//24 45//47 11//37
f 57//24 41//23 45//47
f 56//46 22//51 32//57
f 22//51 54//56 32//57
f 5//2 35//1 58//33
f 58//33 38//7 4//8
f 58//33 42//40 18//48
f 11//37 58//33 18//48
f 36//29 17//42 33//28
f 49//53 52//52 48//22
f 19//18 48//22 52//52
f 18//48 42//40 20//16
f 31//44 7//9 15//17
f 48//22 42//40 58//33
f 32//57 54//56 56//46
f 49//53 35//1 1//3
f 1//3 34//34 49//53
f 37//31 34//34 1//3
f 1//3 50//58 37//31
f 37//31 50//58 53//32
f 55//26 19//59 52//52
f 17//42 19//18 55//26
f 28//50 43//41 47//54
f 48//22 58//33 35//60
f 35//1 49//53 48//61
f 33//28 17//42 55//26
f 2//5 50//58 1//3
f 50//58 2//5 53//62
f 30//30 36//29 33//28
